<svg width="24" height="24" viewBox="0 0 24 24" fill="none" xmlns="http://www.w3.org/2000/svg">
<path d="M21.8301 11.692L2.22462 1.86232C2.14494 1.82248 2.05353 1.8131 1.96681 1.83419C1.76759 1.88341 1.64337 2.08498 1.69259 2.28654L3.71291 10.5412C3.74337 10.6654 3.83478 10.7662 3.95666 10.8061L7.41837 11.9944L3.959 13.1826C3.83712 13.2248 3.74572 13.3233 3.71759 13.4475L1.69259 21.7139C1.6715 21.8006 1.68087 21.892 1.72072 21.9694C1.81212 22.1545 2.03712 22.2295 2.22462 22.1381L21.8301 12.3647C21.9028 12.3295 21.9613 12.2686 21.9988 12.1983C22.0903 12.0108 22.0153 11.7858 21.8301 11.692ZM4.00353 19.3654L5.18244 14.5467L12.1012 12.1725C12.1551 12.1537 12.1996 12.1115 12.2184 12.0553C12.2512 11.9569 12.1996 11.8514 12.1012 11.8162L5.18244 9.44435L4.00822 4.64435L18.727 12.0248L4.00353 19.3654Z" fill="#8C8C8C"/>
</svg>
