<svg width="26" height="26" viewBox="0 0 26 26" fill="none" xmlns="http://www.w3.org/2000/svg">
<path d="M23.0557 8.96466L16.609 8.02774L13.7272 2.18536C13.6485 2.0254 13.519 1.89591 13.359 1.8172C12.9579 1.61915 12.4704 1.78419 12.2698 2.18536L9.38793 8.02774L2.94125 8.96466C2.76352 8.99005 2.60102 9.07384 2.4766 9.20079C2.32619 9.35539 2.24331 9.56337 2.24617 9.77904C2.24902 9.99471 2.33738 10.2004 2.49184 10.351L7.15609 14.8984L6.05414 21.3197C6.0283 21.4691 6.04483 21.6227 6.10185 21.7632C6.15888 21.9036 6.25412 22.0253 6.37677 22.1144C6.49943 22.2035 6.64459 22.2564 6.7958 22.2672C6.94701 22.278 7.09821 22.2462 7.23226 22.1754L12.9985 19.1438L18.7647 22.1754C18.9221 22.2592 19.1049 22.2871 19.2801 22.2566C19.7219 22.1805 20.019 21.7615 19.9428 21.3197L18.8409 14.8984L23.5051 10.351C23.6321 10.2266 23.7159 10.0641 23.7412 9.88634C23.8098 9.442 23.5 9.03067 23.0557 8.96466ZM16.8782 14.2586L17.7948 19.5983L12.9985 17.0795L8.20219 19.6008L9.11879 14.2611L5.2391 10.4779L10.6016 9.69845L12.9985 4.84122L15.3954 9.69845L20.7579 10.4779L16.8782 14.2586Z" fill="#595959"/>
</svg>
